<svg width="202" height="52" viewBox="0 0 202 52" fill="none" xmlns="http://www.w3.org/2000/svg">
<path d="M11.04 33V51H0.24V1.104H16.512C20.448 1.104 23.52 2.04 25.728 3.912C27.936 5.784 29.04 8.52 29.04 12.12V21.336C29.04 27.096 27.072 30.696 23.136 32.136L30.984 51H19.104L12.408 33H11.04ZM11.04 10.32V24.432H15.288C16.392 24.432 17.16 24.192 17.592 23.712C18.024 23.232 18.24 22.392 18.24 21.192V13.056C18.24 12 18 11.28 17.52 10.896C17.04 10.512 16.296 10.32 15.288 10.32H11.04ZM53.6224 13.848C53.6224 11.448 52.1824 10.248 49.3024 10.248C46.4704 10.248 45.0544 11.448 45.0544 13.848V38.256C45.0544 40.656 46.4704 41.856 49.3024 41.856C52.1824 41.856 53.6224 40.656 53.6224 38.256V13.848ZM34.2544 13.272C34.2544 9.336 35.5264 6.216 38.0704 3.912C40.6144 1.56 44.3584 0.383999 49.3024 0.383999C54.2464 0.383999 57.9904 1.56 60.5344 3.912C63.1264 6.216 64.4224 9.336 64.4224 13.272V38.832C64.4224 42.768 63.1264 45.912 60.5344 48.264C57.9904 50.568 54.2464 51.72 49.3024 51.72C44.3584 51.72 40.6144 50.568 38.0704 48.264C35.5264 45.912 34.2544 42.768 34.2544 38.832V13.272ZM91.5129 51L89.4249 39.48H79.5609L77.6169 51H67.3209L77.1129 1.104H92.1609L101.809 51H91.5129ZM81.0729 30.336H87.8409L84.3849 11.04L81.0729 30.336ZM124.364 12.624C124.364 11.76 124.148 11.112 123.716 10.68C123.332 10.2 122.564 9.96 121.412 9.96H116.228V41.712H121.412C123.38 41.712 124.364 40.608 124.364 38.4V12.624ZM105.428 1.104H122.924C126.812 1.104 129.812 2.04 131.924 3.912C134.084 5.784 135.164 8.544 135.164 12.192V39.264C135.164 47.088 131.3 51 123.572 51H105.428V1.104Z" fill="white"/>
<path d="M140.935 1.104H165.631V10.536H151.879V22.848H164.551V32.496H151.879V51H140.935V1.104ZM189.558 51H178.614V35.52L166.734 1.104H177.822L180.198 8.664C182.07 14.568 183.414 19.8 184.23 24.36C185.142 19.704 186.51 14.424 188.334 8.52L190.638 1.104H201.438L189.558 35.52V51Z" fill="#B8FFAB"/>
</svg>
